<svg id="Layer_1" data-name="Layer 1" xmlns="http://www.w3.org/2000/svg" xmlns:xlink="http://www.w3.org/1999/xlink" viewBox="0 0 500 726"><defs><style>.cls-1{fill:#d91e38;}.cls-2{fill:#fff;}.cls-3{clip-path:url(#clip-path);}</style><clipPath id="clip-path"><rect class="cls-1" x="-90.28" y="137.29" width="680.56" height="451.43" rx="1" transform="translate(613 113) rotate(90)"/></clipPath></defs><path class="cls-2" d="M11.13.84H488.65A10.46,10.46,0,0,1,499.1,11.3V715.37a9.79,9.79,0,0,1-9.79,9.79H10.81A9.91,9.91,0,0,1,.9,715.25V11.07A10.23,10.23,0,0,1,11.13.84Z"/><path d="M488.34,726H11.66C5.23,726,0,721.11,0,715.1V10.9C0,4.89,5.23,0,11.66,0H488.34C494.77,0,500,4.89,500,10.9V715.1C500,721.11,494.77,726,488.34,726ZM11.66,1.68c-5.44,0-9.87,4.14-9.87,9.22V715.1c0,5.08,4.43,9.22,9.87,9.22H488.34c5.44,0,9.87-4.14,9.87-9.22V10.9c0-5.08-4.43-9.22-9.87-9.22Z"/><rect class="cls-1" x="-90.28" y="137.29" width="680.56" height="451.43" rx="1" transform="translate(613 113) rotate(90)"/><g class="cls-3"><path class="cls-2" d="M24,52.74,9.57,23.22,24-6.3,38.5,23.22ZM14.72,23.22l9.32,19,9.32-19L24,4.2Z"/><path class="cls-2" d="M47.82,52.74,33.36,23.22,47.82-6.3,62.29,23.22ZM38.5,23.22l9.32,19,9.32-19-9.32-19Z"/><path class="cls-2" d="M71.61,52.74,57.14,23.22,71.61-6.3,86.07,23.22ZM62.29,23.22l9.32,19,9.32-19-9.32-19Z"/><path class="cls-2" d="M95.4,52.74,80.93,23.22,95.4-6.3l14.46,29.52ZM86.07,23.22l9.33,19,9.31-19L95.4,4.2Z"/><path class="cls-2" d="M119.18,52.74,104.71,23.22,119.18-6.3l14.46,29.52Zm-9.32-29.52,9.32,19,9.32-19-9.32-19Z"/><path class="cls-2" d="M143,52.74,128.5,23.22,143-6.3l14.46,29.52Zm-9.33-29.52,9.33,19,9.31-19L143,4.2Z"/><path class="cls-2" d="M166.75,52.74,152.28,23.22,166.75-6.3l14.47,29.52Zm-9.32-29.52,9.32,19,9.32-19-9.32-19Z"/><path class="cls-2" d="M190.54,52.74,176.07,23.22,190.54-6.3,205,23.22Zm-9.32-29.52,9.32,19,9.32-19-9.32-19Z"/><path class="cls-2" d="M214.32,52.74,199.86,23.22,214.32-6.3l14.47,29.52ZM205,23.22l9.32,19,9.32-19-9.32-19Z"/><path class="cls-2" d="M238.11,52.74,223.64,23.22,238.11-6.3l14.46,29.52Zm-9.32-29.52,9.32,19,9.32-19-9.32-19Z"/><path class="cls-2" d="M261.89,52.74,247.43,23.22,261.89-6.3l14.47,29.52Zm-9.32-29.52,9.32,19,9.32-19-9.32-19Z"/><path class="cls-2" d="M285.68,52.74,271.21,23.22,285.68-6.3l14.46,29.52Zm-9.32-29.52,9.32,19,9.32-19-9.32-19Z"/><path class="cls-2" d="M309.46,52.74,295,23.22,309.46-6.3l14.47,29.52Zm-9.32-29.52,9.32,19,9.32-19-9.32-19Z"/><path class="cls-2" d="M333.25,52.74,318.78,23.22,333.25-6.3l14.47,29.52Zm-9.32-29.52,9.32,19,9.32-19-9.32-19Z"/><path class="cls-2" d="M357,52.74,342.57,23.22,357-6.3,371.5,23.22Zm-9.31-29.52,9.31,19,9.33-19L357,4.2Z"/><path class="cls-2" d="M380.82,52.74,366.36,23.22,380.82-6.3l14.47,29.52ZM371.5,23.22l9.32,19,9.32-19-9.32-19Z"/><path class="cls-2" d="M404.6,52.74,390.14,23.22,404.6-6.3l14.47,29.52Zm-9.31-29.52,9.31,19,9.33-19-9.33-19Z"/><path class="cls-2" d="M428.39,52.74,413.93,23.22,428.39-6.3l14.47,29.52Zm-9.32-29.52,9.32,19,9.32-19-9.32-19Z"/><path class="cls-2" d="M452.18,52.74,437.71,23.22,452.18-6.3l14.46,29.52Zm-9.32-29.52,9.32,19,9.32-19-9.32-19Z"/><path class="cls-2" d="M476,52.74,461.5,23.22,476-6.3l14.47,29.52Zm-9.32-29.52,9.32,19,9.32-19L476,4.2Z"/><path class="cls-2" d="M24,101.28,9.57,71.76,24,42.24,38.5,71.76ZM14.72,71.76l9.32,19,9.32-19L24,52.74Z"/><path class="cls-2" d="M47.82,101.28,33.36,71.76,47.82,42.24,62.29,71.76ZM38.5,71.76l9.32,19,9.32-19-9.32-19Z"/><path class="cls-2" d="M71.61,101.28,57.14,71.76,71.61,42.24,86.07,71.76ZM62.29,71.76l9.32,19,9.32-19-9.32-19Z"/><path class="cls-2" d="M95.4,101.28,80.93,71.76,95.4,42.24l14.46,29.52ZM86.07,71.76l9.33,19,9.31-19-9.31-19Z"/><path class="cls-2" d="M119.18,101.28,104.71,71.76l14.47-29.52,14.46,29.52Zm-9.32-29.52,9.32,19,9.32-19-9.32-19Z"/><path class="cls-2" d="M143,101.28,128.5,71.76,143,42.24l14.46,29.52Zm-9.33-29.52,9.33,19,9.31-19-9.31-19Z"/><path class="cls-2" d="M166.75,101.28,152.28,71.76l14.47-29.52,14.47,29.52Zm-9.32-29.52,9.32,19,9.32-19-9.32-19Z"/><path class="cls-2" d="M190.54,101.28,176.07,71.76l14.47-29.52L205,71.76Zm-9.32-29.52,9.32,19,9.32-19-9.32-19Z"/><path class="cls-2" d="M214.32,101.28,199.86,71.76l14.46-29.52,14.47,29.52ZM205,71.76l9.32,19,9.32-19-9.32-19Z"/><path class="cls-2" d="M238.11,101.28,223.64,71.76l14.47-29.52,14.46,29.52Zm-9.32-29.52,9.32,19,9.32-19-9.32-19Z"/><path class="cls-2" d="M261.89,101.28,247.43,71.76l14.46-29.52,14.47,29.52Zm-9.32-29.52,9.32,19,9.32-19-9.32-19Z"/><path class="cls-2" d="M285.68,101.28,271.21,71.76l14.47-29.52,14.46,29.52Zm-9.32-29.52,9.32,19,9.32-19-9.32-19Z"/><path class="cls-2" d="M309.46,101.28,295,71.76l14.46-29.52,14.47,29.52Zm-9.32-29.52,9.32,19,9.32-19-9.32-19Z"/><path class="cls-2" d="M333.25,101.28,318.78,71.76l14.47-29.52,14.47,29.52Zm-9.32-29.52,9.32,19,9.32-19-9.32-19Z"/><path class="cls-2" d="M357,101.28,342.57,71.76,357,42.24,371.5,71.76Zm-9.31-29.52,9.31,19,9.33-19-9.33-19Z"/><path class="cls-2" d="M380.82,101.28,366.36,71.76l14.46-29.52,14.47,29.52ZM371.5,71.76l9.32,19,9.32-19-9.32-19Z"/><path class="cls-2" d="M404.6,101.28,390.14,71.76,404.6,42.24l14.47,29.52Zm-9.31-29.52,9.31,19,9.33-19-9.33-19Z"/><path class="cls-2" d="M428.39,101.28,413.93,71.76l14.46-29.52,14.47,29.52Zm-9.32-29.52,9.32,19,9.32-19-9.32-19Z"/><path class="cls-2" d="M452.18,101.28,437.71,71.76l14.47-29.52,14.46,29.52Zm-9.32-29.52,9.32,19,9.32-19-9.32-19Z"/><path class="cls-2" d="M476,101.28,461.5,71.76,476,42.24l14.47,29.52Zm-9.32-29.52,9.32,19,9.32-19-9.32-19Z"/><path class="cls-2" d="M24,149.82,9.57,120.3,24,90.78,38.5,120.3ZM14.72,120.3l9.32,19,9.32-19-9.32-19Z"/><path class="cls-2" d="M47.82,149.82,33.36,120.3,47.82,90.78,62.29,120.3ZM38.5,120.3l9.32,19,9.32-19-9.32-19Z"/><path class="cls-2" d="M71.61,149.82,57.14,120.3,71.61,90.78,86.07,120.3ZM62.29,120.3l9.32,19,9.32-19-9.32-19Z"/><path class="cls-2" d="M95.4,149.82,80.93,120.3,95.4,90.78l14.46,29.52ZM86.07,120.3l9.33,19,9.31-19-9.31-19Z"/><path class="cls-2" d="M119.18,149.82,104.71,120.3l14.47-29.52,14.46,29.52Zm-9.32-29.52,9.32,19,9.32-19-9.32-19Z"/><path class="cls-2" d="M143,149.82,128.5,120.3,143,90.78l14.46,29.52Zm-9.33-29.52,9.33,19,9.31-19-9.31-19Z"/><path class="cls-2" d="M166.75,149.82,152.28,120.3l14.47-29.52,14.47,29.52Zm-9.32-29.52,9.32,19,9.32-19-9.32-19Z"/><path class="cls-2" d="M190.54,149.82,176.07,120.3l14.47-29.52L205,120.3Zm-9.32-29.52,9.32,19,9.32-19-9.32-19Z"/><path class="cls-2" d="M214.32,149.82,199.86,120.3l14.46-29.52,14.47,29.52ZM205,120.3l9.32,19,9.32-19-9.32-19Z"/><path class="cls-2" d="M238.11,149.82,223.64,120.3l14.47-29.52,14.46,29.52Zm-9.32-29.52,9.32,19,9.32-19-9.32-19Z"/><path class="cls-2" d="M261.89,149.82,247.43,120.3l14.46-29.52,14.47,29.52Zm-9.32-29.52,9.32,19,9.32-19-9.32-19Z"/><path class="cls-2" d="M285.68,149.82,271.21,120.3l14.47-29.52,14.46,29.52Zm-9.32-29.52,9.32,19,9.32-19-9.32-19Z"/><path class="cls-2" d="M309.46,149.82,295,120.3l14.46-29.52,14.47,29.52Zm-9.32-29.52,9.32,19,9.32-19-9.32-19Z"/><path class="cls-2" d="M333.25,149.82,318.78,120.3l14.47-29.52,14.47,29.52Zm-9.32-29.52,9.32,19,9.32-19-9.32-19Z"/><path class="cls-2" d="M357,149.82,342.57,120.3,357,90.78,371.5,120.3Zm-9.31-29.52,9.31,19,9.33-19-9.33-19Z"/><path class="cls-2" d="M380.82,149.82,366.36,120.3l14.46-29.52,14.47,29.52ZM371.5,120.3l9.32,19,9.32-19-9.32-19Z"/><path class="cls-2" d="M404.6,149.82,390.14,120.3,404.6,90.78l14.47,29.52Zm-9.31-29.52,9.31,19,9.33-19-9.33-19Z"/><path class="cls-2" d="M428.39,149.82,413.93,120.3l14.46-29.52,14.47,29.52Zm-9.32-29.52,9.32,19,9.32-19-9.32-19Z"/><path class="cls-2" d="M452.18,149.82,437.71,120.3l14.47-29.52,14.46,29.52Zm-9.32-29.52,9.32,19,9.32-19-9.32-19Z"/><path class="cls-2" d="M476,149.82,461.5,120.3,476,90.78l14.47,29.52Zm-9.32-29.52,9.32,19,9.32-19-9.32-19Z"/><path class="cls-2" d="M24,198.36,9.57,168.84,24,139.32,38.5,168.84Zm-9.32-29.52,9.32,19,9.32-19-9.32-19Z"/><path class="cls-2" d="M47.82,198.36,33.36,168.84l14.46-29.52,14.47,29.52ZM38.5,168.84l9.32,19,9.32-19-9.32-19Z"/><path class="cls-2" d="M71.61,198.36,57.14,168.84l14.47-29.52,14.46,29.52Zm-9.32-29.52,9.32,19,9.32-19-9.32-19Z"/><path class="cls-2" d="M95.4,198.36,80.93,168.84,95.4,139.32l14.46,29.52Zm-9.33-29.52,9.33,19,9.31-19-9.31-19Z"/><path class="cls-2" d="M119.18,198.36l-14.47-29.52,14.47-29.52,14.46,29.52Zm-9.32-29.52,9.32,19,9.32-19-9.32-19Z"/><path class="cls-2" d="M143,198.36,128.5,168.84,143,139.32l14.46,29.52Zm-9.33-29.52,9.33,19,9.31-19-9.31-19Z"/><path class="cls-2" d="M166.75,198.36l-14.47-29.52,14.47-29.52,14.47,29.52Zm-9.32-29.52,9.32,19,9.32-19-9.32-19Z"/><path class="cls-2" d="M190.54,198.36l-14.47-29.52,14.47-29.52L205,168.84Zm-9.32-29.52,9.32,19,9.32-19-9.32-19Z"/><path class="cls-2" d="M214.32,198.36l-14.46-29.52,14.46-29.52,14.47,29.52ZM205,168.84l9.32,19,9.32-19-9.32-19Z"/><path class="cls-2" d="M238.11,198.36l-14.47-29.52,14.47-29.52,14.46,29.52Zm-9.32-29.52,9.32,19,9.32-19-9.32-19Z"/><path class="cls-2" d="M261.89,198.36l-14.46-29.52,14.46-29.52,14.47,29.52Zm-9.32-29.52,9.32,19,9.32-19-9.32-19Z"/><path class="cls-2" d="M285.68,198.36l-14.47-29.52,14.47-29.52,14.46,29.52Zm-9.32-29.52,9.32,19,9.32-19-9.32-19Z"/><path class="cls-2" d="M309.46,198.36,295,168.84l14.46-29.52,14.47,29.52Zm-9.32-29.52,9.32,19,9.32-19-9.32-19Z"/><path class="cls-2" d="M333.25,198.36l-14.47-29.52,14.47-29.52,14.47,29.52Zm-9.32-29.52,9.32,19,9.32-19-9.32-19Z"/><path class="cls-2" d="M357,198.36l-14.46-29.52L357,139.32l14.47,29.52Zm-9.31-29.52,9.31,19,9.33-19-9.33-19Z"/><path class="cls-2" d="M380.82,198.36l-14.46-29.52,14.46-29.52,14.47,29.52Zm-9.32-29.52,9.32,19,9.32-19-9.32-19Z"/><path class="cls-2" d="M404.6,198.36l-14.46-29.52,14.46-29.52,14.47,29.52Zm-9.31-29.52,9.31,19,9.33-19-9.33-19Z"/><path class="cls-2" d="M428.39,198.36l-14.46-29.52,14.46-29.52,14.47,29.52Zm-9.32-29.52,9.32,19,9.32-19-9.32-19Z"/><path class="cls-2" d="M452.18,198.36l-14.47-29.52,14.47-29.52,14.46,29.52Zm-9.32-29.52,9.32,19,9.32-19-9.32-19Z"/><path class="cls-2" d="M476,198.36,461.5,168.84,476,139.32l14.47,29.52Zm-9.32-29.52,9.32,19,9.32-19-9.32-19Z"/><path class="cls-2" d="M24,246.9,9.57,217.38,24,187.86,38.5,217.38Zm-9.32-29.52,9.32,19,9.32-19-9.32-19Z"/><path class="cls-2" d="M47.82,246.9,33.36,217.38l14.46-29.52,14.47,29.52ZM38.5,217.38l9.32,19,9.32-19-9.32-19Z"/><path class="cls-2" d="M71.61,246.9,57.14,217.38l14.47-29.52,14.46,29.52Zm-9.32-29.52,9.32,19,9.32-19-9.32-19Z"/><path class="cls-2" d="M95.4,246.9,80.93,217.38,95.4,187.86l14.46,29.52Zm-9.33-29.52,9.33,19,9.31-19-9.31-19Z"/><path class="cls-2" d="M119.18,246.9l-14.47-29.52,14.47-29.52,14.46,29.52Zm-9.32-29.52,9.32,19,9.32-19-9.32-19Z"/><path class="cls-2" d="M143,246.9,128.5,217.38,143,187.86l14.46,29.52Zm-9.33-29.52,9.33,19,9.31-19-9.31-19Z"/><path class="cls-2" d="M166.75,246.9l-14.47-29.52,14.47-29.52,14.47,29.52Zm-9.32-29.52,9.32,19,9.32-19-9.32-19Z"/><path class="cls-2" d="M190.54,246.9l-14.47-29.52,14.47-29.52L205,217.38Zm-9.32-29.52,9.32,19,9.32-19-9.32-19Z"/><path class="cls-2" d="M214.32,246.9l-14.46-29.52,14.46-29.52,14.47,29.52ZM205,217.38l9.32,19,9.32-19-9.32-19Z"/><path class="cls-2" d="M238.11,246.9l-14.47-29.52,14.47-29.52,14.46,29.52Zm-9.32-29.52,9.32,19,9.32-19-9.32-19Z"/><path class="cls-2" d="M261.89,246.9l-14.46-29.52,14.46-29.52,14.47,29.52Zm-9.32-29.52,9.32,19,9.32-19-9.32-19Z"/><path class="cls-2" d="M285.68,246.9l-14.47-29.52,14.47-29.52,14.46,29.52Zm-9.32-29.52,9.32,19,9.32-19-9.32-19Z"/><path class="cls-2" d="M309.46,246.9,295,217.38l14.46-29.52,14.47,29.52Zm-9.32-29.52,9.32,19,9.32-19-9.32-19Z"/><path class="cls-2" d="M333.25,246.9l-14.47-29.52,14.47-29.52,14.47,29.52Zm-9.32-29.52,9.32,19,9.32-19-9.32-19Z"/><path class="cls-2" d="M357,246.9l-14.46-29.52L357,187.86l14.47,29.52Zm-9.31-29.52,9.31,19,9.33-19-9.33-19Z"/><path class="cls-2" d="M380.82,246.9l-14.46-29.52,14.46-29.52,14.47,29.52Zm-9.32-29.52,9.32,19,9.32-19-9.32-19Z"/><path class="cls-2" d="M404.6,246.9l-14.46-29.52,14.46-29.52,14.47,29.52Zm-9.31-29.52,9.31,19,9.33-19-9.33-19Z"/><path class="cls-2" d="M428.39,246.9l-14.46-29.52,14.46-29.52,14.47,29.52Zm-9.32-29.52,9.32,19,9.32-19-9.32-19Z"/><path class="cls-2" d="M452.18,246.9l-14.47-29.52,14.47-29.52,14.46,29.52Zm-9.32-29.52,9.32,19,9.32-19-9.32-19Z"/><path class="cls-2" d="M476,246.9,461.5,217.38,476,187.86l14.47,29.52Zm-9.32-29.52,9.32,19,9.32-19-9.32-19Z"/><path class="cls-2" d="M24,295.44,9.57,265.92,24,236.4,38.5,265.92Zm-9.32-29.52,9.32,19,9.32-19L24,246.9Z"/><path class="cls-2" d="M47.82,295.44,33.36,265.92,47.82,236.4l14.47,29.52ZM38.5,265.92l9.32,19,9.32-19-9.32-19Z"/><path class="cls-2" d="M71.61,295.44,57.14,265.92,71.61,236.4l14.46,29.52Zm-9.32-29.52,9.32,19,9.32-19-9.32-19Z"/><path class="cls-2" d="M95.4,295.44,80.93,265.92,95.4,236.4l14.46,29.52Zm-9.33-29.52,9.33,19,9.31-19-9.31-19Z"/><path class="cls-2" d="M119.18,295.44l-14.47-29.52,14.47-29.52,14.46,29.52Zm-9.32-29.52,9.32,19,9.32-19-9.32-19Z"/><path class="cls-2" d="M143,295.44,128.5,265.92,143,236.4l14.46,29.52Zm-9.33-29.52,9.33,19,9.31-19-9.31-19Z"/><path class="cls-2" d="M166.75,295.44l-14.47-29.52,14.47-29.52,14.47,29.52Zm-9.32-29.52,9.32,19,9.32-19-9.32-19Z"/><path class="cls-2" d="M190.54,295.44l-14.47-29.52,14.47-29.52L205,265.92Zm-9.32-29.52,9.32,19,9.32-19-9.32-19Z"/><path class="cls-2" d="M214.32,295.44l-14.46-29.52,14.46-29.52,14.47,29.52ZM205,265.92l9.32,19,9.32-19-9.32-19Z"/><path class="cls-2" d="M238.11,295.44l-14.47-29.52,14.47-29.52,14.46,29.52Zm-9.32-29.52,9.32,19,9.32-19-9.32-19Z"/><path class="cls-2" d="M261.89,295.44l-14.46-29.52,14.46-29.52,14.47,29.52Zm-9.32-29.52,9.32,19,9.32-19-9.32-19Z"/><path class="cls-2" d="M285.68,295.44l-14.47-29.52,14.47-29.52,14.46,29.52Zm-9.32-29.52,9.32,19,9.32-19-9.32-19Z"/><path class="cls-2" d="M309.46,295.44,295,265.92l14.46-29.52,14.47,29.52Zm-9.32-29.52,9.32,19,9.32-19-9.32-19Z"/><path class="cls-2" d="M333.25,295.44l-14.47-29.52,14.47-29.52,14.47,29.52Zm-9.32-29.52,9.32,19,9.32-19-9.32-19Z"/><path class="cls-2" d="M357,295.44l-14.46-29.52L357,236.4l14.47,29.52Zm-9.31-29.52,9.31,19,9.33-19-9.33-19Z"/><path class="cls-2" d="M380.82,295.44l-14.46-29.52,14.46-29.52,14.47,29.52Zm-9.32-29.52,9.32,19,9.32-19-9.32-19Z"/><path class="cls-2" d="M404.6,295.44l-14.46-29.52L404.6,236.4l14.47,29.52Zm-9.31-29.52,9.31,19,9.33-19-9.33-19Z"/><path class="cls-2" d="M428.39,295.44l-14.46-29.52,14.46-29.52,14.47,29.52Zm-9.32-29.52,9.32,19,9.32-19-9.32-19Z"/><path class="cls-2" d="M452.18,295.44l-14.47-29.52,14.47-29.52,14.46,29.52Zm-9.32-29.52,9.32,19,9.32-19-9.32-19Z"/><path class="cls-2" d="M476,295.44,461.5,265.92,476,236.4l14.47,29.52Zm-9.32-29.52,9.32,19,9.32-19-9.32-19Z"/><path class="cls-2" d="M24,344,9.57,314.46,24,284.94,38.5,314.46Zm-9.32-29.52,9.32,19,9.32-19-9.32-19Z"/><path class="cls-2" d="M47.82,344,33.36,314.46l14.46-29.52,14.47,29.52ZM38.5,314.46l9.32,19,9.32-19-9.32-19Z"/><path class="cls-2" d="M71.61,344,57.14,314.46l14.47-29.52,14.46,29.52Zm-9.32-29.52,9.32,19,9.32-19-9.32-19Z"/><path class="cls-2" d="M95.4,344,80.93,314.46,95.4,284.94l14.46,29.52Zm-9.33-29.52,9.33,19,9.31-19-9.31-19Z"/><path class="cls-2" d="M119.18,344l-14.47-29.52,14.47-29.52,14.46,29.52Zm-9.32-29.52,9.32,19,9.32-19-9.32-19Z"/><path class="cls-2" d="M143,344,128.5,314.46,143,284.94l14.46,29.52Zm-9.33-29.52,9.33,19,9.31-19-9.31-19Z"/><path class="cls-2" d="M166.75,344l-14.47-29.52,14.47-29.52,14.47,29.52Zm-9.32-29.52,9.32,19,9.32-19-9.32-19Z"/><path class="cls-2" d="M190.54,344l-14.47-29.52,14.47-29.52L205,314.46Zm-9.32-29.52,9.32,19,9.32-19-9.32-19Z"/><path class="cls-2" d="M214.32,344l-14.46-29.52,14.46-29.52,14.47,29.52ZM205,314.46l9.32,19,9.32-19-9.32-19Z"/><path class="cls-2" d="M238.11,344l-14.47-29.52,14.47-29.52,14.46,29.52Zm-9.32-29.52,9.32,19,9.32-19-9.32-19Z"/><path class="cls-2" d="M261.89,344l-14.46-29.52,14.46-29.52,14.47,29.52Zm-9.32-29.52,9.32,19,9.32-19-9.32-19Z"/><path class="cls-2" d="M285.68,344l-14.47-29.52,14.47-29.52,14.46,29.52Zm-9.32-29.52,9.32,19,9.32-19-9.32-19Z"/><path class="cls-2" d="M309.46,344,295,314.46l14.46-29.52,14.47,29.52Zm-9.32-29.52,9.32,19,9.32-19-9.32-19Z"/><path class="cls-2" d="M333.25,344l-14.47-29.52,14.47-29.52,14.47,29.52Zm-9.32-29.52,9.32,19,9.32-19-9.32-19Z"/><path class="cls-2" d="M357,344l-14.46-29.52L357,284.94l14.47,29.52Zm-9.31-29.52,9.31,19,9.33-19-9.33-19Z"/><path class="cls-2" d="M380.82,344l-14.46-29.52,14.46-29.52,14.47,29.52Zm-9.32-29.52,9.32,19,9.32-19-9.32-19Z"/><path class="cls-2" d="M404.6,344l-14.46-29.52,14.46-29.52,14.47,29.52Zm-9.31-29.52,9.31,19,9.33-19-9.33-19Z"/><path class="cls-2" d="M428.39,344l-14.46-29.52,14.46-29.52,14.47,29.52Zm-9.32-29.52,9.32,19,9.32-19-9.32-19Z"/><path class="cls-2" d="M452.18,344l-14.47-29.52,14.47-29.52,14.46,29.52Zm-9.32-29.52,9.32,19,9.32-19-9.32-19Z"/><path class="cls-2" d="M476,344,461.5,314.46,476,284.94l14.47,29.52Zm-9.32-29.52,9.32,19,9.32-19-9.32-19Z"/><path class="cls-2" d="M24,392.52,9.57,363,24,333.48,38.5,363ZM14.72,363,24,382l9.32-19L24,344Z"/><path class="cls-2" d="M47.82,392.52,33.36,363l14.46-29.52L62.29,363ZM38.5,363l9.32,19,9.32-19-9.32-19Z"/><path class="cls-2" d="M71.61,392.52,57.14,363l14.47-29.52L86.07,363ZM62.29,363l9.32,19,9.32-19-9.32-19Z"/><path class="cls-2" d="M95.4,392.52,80.93,363,95.4,333.48,109.86,363ZM86.07,363l9.33,19,9.31-19L95.4,344Z"/><path class="cls-2" d="M119.18,392.52,104.71,363l14.47-29.52L133.64,363ZM109.86,363l9.32,19,9.32-19-9.32-19Z"/><path class="cls-2" d="M143,392.52,128.5,363,143,333.48,157.43,363ZM133.64,363,143,382l9.31-19L143,344Z"/><path class="cls-2" d="M166.75,392.52,152.28,363l14.47-29.52L181.22,363ZM157.43,363l9.32,19,9.32-19-9.32-19Z"/><path class="cls-2" d="M190.54,392.52,176.07,363l14.47-29.52L205,363ZM181.22,363l9.32,19,9.32-19-9.32-19Z"/><path class="cls-2" d="M214.32,392.52,199.86,363l14.46-29.52L228.79,363ZM205,363l9.32,19,9.32-19-9.32-19Z"/><path class="cls-2" d="M238.11,392.52,223.64,363l14.47-29.52L252.57,363ZM228.79,363l9.32,19,9.32-19-9.32-19Z"/><path class="cls-2" d="M261.89,392.52,247.43,363l14.46-29.52L276.36,363ZM252.57,363l9.32,19,9.32-19-9.32-19Z"/><path class="cls-2" d="M285.68,392.52,271.21,363l14.47-29.52L300.14,363ZM276.36,363l9.32,19L295,363l-9.32-19Z"/><path class="cls-2" d="M309.46,392.52,295,363l14.46-29.52L323.93,363ZM300.14,363l9.32,19,9.32-19-9.32-19Z"/><path class="cls-2" d="M333.25,392.52,318.78,363l14.47-29.52L347.72,363ZM323.93,363l9.32,19,9.32-19-9.32-19Z"/><path class="cls-2" d="M357,392.52,342.57,363,357,333.48,371.5,363ZM347.72,363,357,382l9.33-19L357,344Z"/><path class="cls-2" d="M380.82,392.52,366.36,363l14.46-29.52L395.29,363ZM371.5,363l9.32,19,9.32-19-9.32-19Z"/><path class="cls-2" d="M404.6,392.52,390.14,363l14.46-29.52L419.07,363ZM395.29,363l9.31,19,9.33-19-9.33-19Z"/><path class="cls-2" d="M428.39,392.52,413.93,363l14.46-29.52L442.86,363ZM419.07,363l9.32,19,9.32-19-9.32-19Z"/><path class="cls-2" d="M452.18,392.52,437.71,363l14.47-29.52L466.64,363ZM442.86,363l9.32,19,9.32-19-9.32-19Z"/><path class="cls-2" d="M476,392.52,461.5,363,476,333.48,490.43,363ZM466.64,363,476,382l9.32-19L476,344Z"/><path class="cls-2" d="M24,441.06,9.57,411.54,24,382,38.5,411.54Zm-9.32-29.52,9.32,19,9.32-19-9.32-19Z"/><path class="cls-2" d="M47.82,441.06,33.36,411.54,47.82,382l14.47,29.52ZM38.5,411.54l9.32,19,9.32-19-9.32-19Z"/><path class="cls-2" d="M71.61,441.06,57.14,411.54,71.61,382l14.46,29.52Zm-9.32-29.52,9.32,19,9.32-19-9.32-19Z"/><path class="cls-2" d="M95.4,441.06,80.93,411.54,95.4,382l14.46,29.52Zm-9.33-29.52,9.33,19,9.31-19-9.31-19Z"/><path class="cls-2" d="M119.18,441.06l-14.47-29.52L119.18,382l14.46,29.52Zm-9.32-29.52,9.32,19,9.32-19-9.32-19Z"/><path class="cls-2" d="M143,441.06,128.5,411.54,143,382l14.46,29.52Zm-9.33-29.52,9.33,19,9.31-19-9.31-19Z"/><path class="cls-2" d="M166.75,441.06l-14.47-29.52L166.75,382l14.47,29.52Zm-9.32-29.52,9.32,19,9.32-19-9.32-19Z"/><path class="cls-2" d="M190.54,441.06l-14.47-29.52L190.54,382,205,411.54Zm-9.32-29.52,9.32,19,9.32-19-9.32-19Z"/><path class="cls-2" d="M214.32,441.06l-14.46-29.52L214.32,382l14.47,29.52ZM205,411.54l9.32,19,9.32-19-9.32-19Z"/><path class="cls-2" d="M238.11,441.06l-14.47-29.52L238.11,382l14.46,29.52Zm-9.32-29.52,9.32,19,9.32-19-9.32-19Z"/><path class="cls-2" d="M261.89,441.06l-14.46-29.52L261.89,382l14.47,29.52Zm-9.32-29.52,9.32,19,9.32-19-9.32-19Z"/><path class="cls-2" d="M285.68,441.06l-14.47-29.52L285.68,382l14.46,29.52Zm-9.32-29.52,9.32,19,9.32-19-9.32-19Z"/><path class="cls-2" d="M309.46,441.06,295,411.54,309.46,382l14.47,29.52Zm-9.32-29.52,9.32,19,9.32-19-9.32-19Z"/><path class="cls-2" d="M333.25,441.06l-14.47-29.52L333.25,382l14.47,29.52Zm-9.32-29.52,9.32,19,9.32-19-9.32-19Z"/><path class="cls-2" d="M357,441.06l-14.46-29.52L357,382l14.47,29.52Zm-9.31-29.52,9.31,19,9.33-19-9.33-19Z"/><path class="cls-2" d="M380.82,441.06l-14.46-29.52L380.82,382l14.47,29.52Zm-9.32-29.52,9.32,19,9.32-19-9.32-19Z"/><path class="cls-2" d="M404.6,441.06l-14.46-29.52L404.6,382l14.47,29.52Zm-9.31-29.52,9.31,19,9.33-19-9.33-19Z"/><path class="cls-2" d="M428.39,441.06l-14.46-29.52L428.39,382l14.47,29.52Zm-9.32-29.52,9.32,19,9.32-19-9.32-19Z"/><path class="cls-2" d="M452.18,441.06l-14.47-29.52L452.18,382l14.46,29.52Zm-9.32-29.52,9.32,19,9.32-19-9.32-19Z"/><path class="cls-2" d="M476,441.06,461.5,411.54,476,382l14.47,29.52Zm-9.32-29.52,9.32,19,9.32-19-9.32-19Z"/><path class="cls-2" d="M24,489.6,9.57,460.08,24,430.56,38.5,460.08Zm-9.32-29.52,9.32,19,9.32-19-9.32-19Z"/><path class="cls-2" d="M47.82,489.6,33.36,460.08l14.46-29.52,14.47,29.52ZM38.5,460.08l9.32,19,9.32-19-9.32-19Z"/><path class="cls-2" d="M71.61,489.6,57.14,460.08l14.47-29.52,14.46,29.52Zm-9.32-29.52,9.32,19,9.32-19-9.32-19Z"/><path class="cls-2" d="M95.4,489.6,80.93,460.08,95.4,430.56l14.46,29.52Zm-9.33-29.52,9.33,19,9.31-19-9.31-19Z"/><path class="cls-2" d="M119.18,489.6l-14.47-29.52,14.47-29.52,14.46,29.52Zm-9.32-29.52,9.32,19,9.32-19-9.32-19Z"/><path class="cls-2" d="M143,489.6,128.5,460.08,143,430.56l14.46,29.52Zm-9.33-29.52,9.33,19,9.31-19-9.31-19Z"/><path class="cls-2" d="M166.75,489.6l-14.47-29.52,14.47-29.52,14.47,29.52Zm-9.32-29.52,9.32,19,9.32-19-9.32-19Z"/><path class="cls-2" d="M190.54,489.6l-14.47-29.52,14.47-29.52L205,460.08Zm-9.32-29.52,9.32,19,9.32-19-9.32-19Z"/><path class="cls-2" d="M214.32,489.6l-14.46-29.52,14.46-29.52,14.47,29.52ZM205,460.08l9.32,19,9.32-19-9.32-19Z"/><path class="cls-2" d="M238.11,489.6l-14.47-29.52,14.47-29.52,14.46,29.52Zm-9.32-29.52,9.32,19,9.32-19-9.32-19Z"/><path class="cls-2" d="M261.89,489.6l-14.46-29.52,14.46-29.52,14.47,29.52Zm-9.32-29.52,9.32,19,9.32-19-9.32-19Z"/><path class="cls-2" d="M285.68,489.6l-14.47-29.52,14.47-29.52,14.46,29.52Zm-9.32-29.52,9.32,19,9.32-19-9.32-19Z"/><path class="cls-2" d="M309.46,489.6,295,460.08l14.46-29.52,14.47,29.52Zm-9.32-29.52,9.32,19,9.32-19-9.32-19Z"/><path class="cls-2" d="M333.25,489.6l-14.47-29.52,14.47-29.52,14.47,29.52Zm-9.32-29.52,9.32,19,9.32-19-9.32-19Z"/><path class="cls-2" d="M357,489.6l-14.46-29.52L357,430.56l14.47,29.52Zm-9.31-29.52,9.31,19,9.33-19-9.33-19Z"/><path class="cls-2" d="M380.82,489.6l-14.46-29.52,14.46-29.52,14.47,29.52Zm-9.32-29.52,9.32,19,9.32-19-9.32-19Z"/><path class="cls-2" d="M404.6,489.6l-14.46-29.52,14.46-29.52,14.47,29.52Zm-9.31-29.52,9.31,19,9.33-19-9.33-19Z"/><path class="cls-2" d="M428.39,489.6l-14.46-29.52,14.46-29.52,14.47,29.52Zm-9.32-29.52,9.32,19,9.32-19-9.32-19Z"/><path class="cls-2" d="M452.18,489.6l-14.47-29.52,14.47-29.52,14.46,29.52Zm-9.32-29.52,9.32,19,9.32-19-9.32-19Z"/><path class="cls-2" d="M476,489.6,461.5,460.08,476,430.56l14.47,29.52Zm-9.32-29.52,9.32,19,9.32-19-9.32-19Z"/><path class="cls-2" d="M24,538.14,9.57,508.62,24,479.1,38.5,508.62Zm-9.32-29.52,9.32,19,9.32-19L24,489.6Z"/><path class="cls-2" d="M47.82,538.14,33.36,508.62,47.82,479.1l14.47,29.52ZM38.5,508.62l9.32,19,9.32-19-9.32-19Z"/><path class="cls-2" d="M71.61,538.14,57.14,508.62,71.61,479.1l14.46,29.52Zm-9.32-29.52,9.32,19,9.32-19-9.32-19Z"/><path class="cls-2" d="M95.4,538.14,80.93,508.62,95.4,479.1l14.46,29.52Zm-9.33-29.52,9.33,19,9.31-19-9.31-19Z"/><path class="cls-2" d="M119.18,538.14l-14.47-29.52,14.47-29.52,14.46,29.52Zm-9.32-29.52,9.32,19,9.32-19-9.32-19Z"/><path class="cls-2" d="M143,538.14,128.5,508.62,143,479.1l14.46,29.52Zm-9.33-29.52,9.33,19,9.31-19-9.31-19Z"/><path class="cls-2" d="M166.75,538.14l-14.47-29.52,14.47-29.52,14.47,29.52Zm-9.32-29.52,9.32,19,9.32-19-9.32-19Z"/><path class="cls-2" d="M190.54,538.14l-14.47-29.52,14.47-29.52L205,508.62Zm-9.32-29.52,9.32,19,9.32-19-9.32-19Z"/><path class="cls-2" d="M214.32,538.14l-14.46-29.52,14.46-29.52,14.47,29.52ZM205,508.62l9.32,19,9.32-19-9.32-19Z"/><path class="cls-2" d="M238.11,538.14l-14.47-29.52,14.47-29.52,14.46,29.52Zm-9.32-29.52,9.32,19,9.32-19-9.32-19Z"/><path class="cls-2" d="M261.89,538.14l-14.46-29.52,14.46-29.52,14.47,29.52Zm-9.32-29.52,9.32,19,9.32-19-9.32-19Z"/><path class="cls-2" d="M285.68,538.14l-14.47-29.52,14.47-29.52,14.46,29.52Zm-9.32-29.52,9.32,19,9.32-19-9.32-19Z"/><path class="cls-2" d="M309.46,538.14,295,508.62l14.46-29.52,14.47,29.52Zm-9.32-29.52,9.32,19,9.32-19-9.32-19Z"/><path class="cls-2" d="M333.25,538.14l-14.47-29.52,14.47-29.52,14.47,29.52Zm-9.32-29.52,9.32,19,9.32-19-9.32-19Z"/><path class="cls-2" d="M357,538.14l-14.46-29.52L357,479.1l14.47,29.52Zm-9.31-29.52,9.31,19,9.33-19-9.33-19Z"/><path class="cls-2" d="M380.82,538.14l-14.46-29.52,14.46-29.52,14.47,29.52Zm-9.32-29.52,9.32,19,9.32-19-9.32-19Z"/><path class="cls-2" d="M404.6,538.14l-14.46-29.52L404.6,479.1l14.47,29.52Zm-9.31-29.52,9.31,19,9.33-19-9.33-19Z"/><path class="cls-2" d="M428.39,538.14l-14.46-29.52,14.46-29.52,14.47,29.52Zm-9.32-29.52,9.32,19,9.32-19-9.32-19Z"/><path class="cls-2" d="M452.18,538.14l-14.47-29.52,14.47-29.52,14.46,29.52Zm-9.32-29.52,9.32,19,9.32-19-9.32-19Z"/><path class="cls-2" d="M476,538.14,461.5,508.62,476,479.1l14.47,29.52Zm-9.32-29.52,9.32,19,9.32-19-9.32-19Z"/><path class="cls-2" d="M24,586.68,9.57,557.16,24,527.64,38.5,557.16Zm-9.32-29.52,9.32,19,9.32-19-9.32-19Z"/><path class="cls-2" d="M47.82,586.68,33.36,557.16l14.46-29.52,14.47,29.52ZM38.5,557.16l9.32,19,9.32-19-9.32-19Z"/><path class="cls-2" d="M71.61,586.68,57.14,557.16l14.47-29.52,14.46,29.52Zm-9.32-29.52,9.32,19,9.32-19-9.32-19Z"/><path class="cls-2" d="M95.4,586.68,80.93,557.16,95.4,527.64l14.46,29.52Zm-9.33-29.52,9.33,19,9.31-19-9.31-19Z"/><path class="cls-2" d="M119.18,586.68l-14.47-29.52,14.47-29.52,14.46,29.52Zm-9.32-29.52,9.32,19,9.32-19-9.32-19Z"/><path class="cls-2" d="M143,586.68,128.5,557.16,143,527.64l14.46,29.52Zm-9.33-29.52,9.33,19,9.31-19-9.31-19Z"/><path class="cls-2" d="M166.75,586.68l-14.47-29.52,14.47-29.52,14.47,29.52Zm-9.32-29.52,9.32,19,9.32-19-9.32-19Z"/><path class="cls-2" d="M190.54,586.68l-14.47-29.52,14.47-29.52L205,557.16Zm-9.32-29.52,9.32,19,9.32-19-9.32-19Z"/><path class="cls-2" d="M214.32,586.68l-14.46-29.52,14.46-29.52,14.47,29.52ZM205,557.16l9.32,19,9.32-19-9.32-19Z"/><path class="cls-2" d="M238.11,586.68l-14.47-29.52,14.47-29.52,14.46,29.52Zm-9.32-29.52,9.32,19,9.32-19-9.32-19Z"/><path class="cls-2" d="M261.89,586.68l-14.46-29.52,14.46-29.52,14.47,29.52Zm-9.32-29.52,9.32,19,9.32-19-9.32-19Z"/><path class="cls-2" d="M285.68,586.68l-14.47-29.52,14.47-29.52,14.46,29.52Zm-9.32-29.52,9.32,19,9.32-19-9.32-19Z"/><path class="cls-2" d="M309.46,586.68,295,557.16l14.46-29.52,14.47,29.52Zm-9.32-29.52,9.32,19,9.32-19-9.32-19Z"/><path class="cls-2" d="M333.25,586.68l-14.47-29.52,14.47-29.52,14.47,29.52Zm-9.32-29.52,9.32,19,9.32-19-9.32-19Z"/><path class="cls-2" d="M357,586.68l-14.46-29.52L357,527.64l14.47,29.52Zm-9.31-29.52,9.31,19,9.33-19-9.33-19Z"/><path class="cls-2" d="M380.82,586.68l-14.46-29.52,14.46-29.52,14.47,29.52Zm-9.32-29.52,9.32,19,9.32-19-9.32-19Z"/><path class="cls-2" d="M404.6,586.68l-14.46-29.52,14.46-29.52,14.47,29.52Zm-9.31-29.52,9.31,19,9.33-19-9.33-19Z"/><path class="cls-2" d="M428.39,586.68l-14.46-29.52,14.46-29.52,14.47,29.52Zm-9.32-29.52,9.32,19,9.32-19-9.32-19Z"/><path class="cls-2" d="M452.18,586.68l-14.47-29.52,14.47-29.52,14.46,29.52Zm-9.32-29.52,9.32,19,9.32-19-9.32-19Z"/><path class="cls-2" d="M476,586.68,461.5,557.16,476,527.64l14.47,29.52Zm-9.32-29.52,9.32,19,9.32-19-9.32-19Z"/><path class="cls-2" d="M24,635.22,9.57,605.7,24,576.18,38.5,605.7ZM14.72,605.7l9.32,19,9.32-19-9.32-19Z"/><path class="cls-2" d="M47.82,635.22,33.36,605.7l14.46-29.52L62.29,605.7ZM38.5,605.7l9.32,19,9.32-19-9.32-19Z"/><path class="cls-2" d="M71.61,635.22,57.14,605.7l14.47-29.52L86.07,605.7ZM62.29,605.7l9.32,19,9.32-19-9.32-19Z"/><path class="cls-2" d="M95.4,635.22,80.93,605.7,95.4,576.18l14.46,29.52ZM86.07,605.7l9.33,19,9.31-19-9.31-19Z"/><path class="cls-2" d="M119.18,635.22,104.71,605.7l14.47-29.52,14.46,29.52Zm-9.32-29.52,9.32,19,9.32-19-9.32-19Z"/><path class="cls-2" d="M143,635.22,128.5,605.7,143,576.18l14.46,29.52Zm-9.33-29.52,9.33,19,9.31-19-9.31-19Z"/><path class="cls-2" d="M166.75,635.22,152.28,605.7l14.47-29.52,14.47,29.52Zm-9.32-29.52,9.32,19,9.32-19-9.32-19Z"/><path class="cls-2" d="M190.54,635.22,176.07,605.7l14.47-29.52L205,605.7Zm-9.32-29.52,9.32,19,9.32-19-9.32-19Z"/><path class="cls-2" d="M214.32,635.22,199.86,605.7l14.46-29.52,14.47,29.52ZM205,605.7l9.32,19,9.32-19-9.32-19Z"/><path class="cls-2" d="M238.11,635.22,223.64,605.7l14.47-29.52,14.46,29.52Zm-9.32-29.52,9.32,19,9.32-19-9.32-19Z"/><path class="cls-2" d="M261.89,635.22,247.43,605.7l14.46-29.52,14.47,29.52Zm-9.32-29.52,9.32,19,9.32-19-9.32-19Z"/><path class="cls-2" d="M285.68,635.22,271.21,605.7l14.47-29.52,14.46,29.52Zm-9.32-29.52,9.32,19,9.32-19-9.32-19Z"/><path class="cls-2" d="M309.46,635.22,295,605.7l14.46-29.52,14.47,29.52Zm-9.32-29.52,9.32,19,9.32-19-9.32-19Z"/><path class="cls-2" d="M333.25,635.22,318.78,605.7l14.47-29.52,14.47,29.52Zm-9.32-29.52,9.32,19,9.32-19-9.32-19Z"/><path class="cls-2" d="M357,635.22,342.57,605.7,357,576.18,371.5,605.7Zm-9.31-29.52,9.31,19,9.33-19-9.33-19Z"/><path class="cls-2" d="M380.82,635.22,366.36,605.7l14.46-29.52,14.47,29.52ZM371.5,605.7l9.32,19,9.32-19-9.32-19Z"/><path class="cls-2" d="M404.6,635.22,390.14,605.7l14.46-29.52,14.47,29.52Zm-9.31-29.52,9.31,19,9.33-19-9.33-19Z"/><path class="cls-2" d="M428.39,635.22,413.93,605.7l14.46-29.52,14.47,29.52Zm-9.32-29.52,9.32,19,9.32-19-9.32-19Z"/><path class="cls-2" d="M452.18,635.22,437.71,605.7l14.47-29.52,14.46,29.52Zm-9.32-29.52,9.32,19,9.32-19-9.32-19Z"/><path class="cls-2" d="M476,635.22,461.5,605.7,476,576.18l14.47,29.52Zm-9.32-29.52,9.32,19,9.32-19-9.32-19Z"/><path class="cls-2" d="M24,683.76,9.57,654.24,24,624.72,38.5,654.24Zm-9.32-29.52,9.32,19,9.32-19-9.32-19Z"/><path class="cls-2" d="M47.82,683.76,33.36,654.24l14.46-29.52,14.47,29.52ZM38.5,654.24l9.32,19,9.32-19-9.32-19Z"/><path class="cls-2" d="M71.61,683.76,57.14,654.24l14.47-29.52,14.46,29.52Zm-9.32-29.52,9.32,19,9.32-19-9.32-19Z"/><path class="cls-2" d="M95.4,683.76,80.93,654.24,95.4,624.72l14.46,29.52Zm-9.33-29.52,9.33,19,9.31-19-9.31-19Z"/><path class="cls-2" d="M119.18,683.76l-14.47-29.52,14.47-29.52,14.46,29.52Zm-9.32-29.52,9.32,19,9.32-19-9.32-19Z"/><path class="cls-2" d="M143,683.76,128.5,654.24,143,624.72l14.46,29.52Zm-9.33-29.52,9.33,19,9.31-19-9.31-19Z"/><path class="cls-2" d="M166.75,683.76l-14.47-29.52,14.47-29.52,14.47,29.52Zm-9.32-29.52,9.32,19,9.32-19-9.32-19Z"/><path class="cls-2" d="M190.54,683.76l-14.47-29.52,14.47-29.52L205,654.24Zm-9.32-29.52,9.32,19,9.32-19-9.32-19Z"/><path class="cls-2" d="M214.32,683.76l-14.46-29.52,14.46-29.52,14.47,29.52ZM205,654.24l9.32,19,9.32-19-9.32-19Z"/><path class="cls-2" d="M238.11,683.76l-14.47-29.52,14.47-29.52,14.46,29.52Zm-9.32-29.52,9.32,19,9.32-19-9.32-19Z"/><path class="cls-2" d="M261.89,683.76l-14.46-29.52,14.46-29.52,14.47,29.52Zm-9.32-29.52,9.32,19,9.32-19-9.32-19Z"/><path class="cls-2" d="M285.68,683.76l-14.47-29.52,14.47-29.52,14.46,29.52Zm-9.32-29.52,9.32,19,9.32-19-9.32-19Z"/><path class="cls-2" d="M309.46,683.76,295,654.24l14.46-29.52,14.47,29.52Zm-9.32-29.52,9.32,19,9.32-19-9.32-19Z"/><path class="cls-2" d="M333.25,683.76l-14.47-29.52,14.47-29.52,14.47,29.52Zm-9.32-29.52,9.32,19,9.32-19-9.32-19Z"/><path class="cls-2" d="M357,683.76l-14.46-29.52L357,624.72l14.47,29.52Zm-9.31-29.52,9.31,19,9.33-19-9.33-19Z"/><path class="cls-2" d="M380.82,683.76l-14.46-29.52,14.46-29.52,14.47,29.52Zm-9.32-29.52,9.32,19,9.32-19-9.32-19Z"/><path class="cls-2" d="M404.6,683.76l-14.46-29.52,14.46-29.52,14.47,29.52Zm-9.31-29.52,9.31,19,9.33-19-9.33-19Z"/><path class="cls-2" d="M428.39,683.76l-14.46-29.52,14.46-29.52,14.47,29.52Zm-9.32-29.52,9.32,19,9.32-19-9.32-19Z"/><path class="cls-2" d="M452.18,683.76l-14.47-29.52,14.47-29.52,14.46,29.52Zm-9.32-29.52,9.32,19,9.32-19-9.32-19Z"/><path class="cls-2" d="M476,683.76,461.5,654.24,476,624.72l14.47,29.52Zm-9.32-29.52,9.32,19,9.32-19-9.32-19Z"/><path class="cls-2" d="M24,732.3,9.57,702.78,24,673.26,38.5,702.78Zm-9.32-29.52,9.32,19,9.32-19-9.32-19Z"/><path class="cls-2" d="M47.82,732.3,33.36,702.78l14.46-29.52,14.47,29.52ZM38.5,702.78l9.32,19,9.32-19-9.32-19Z"/><path class="cls-2" d="M71.61,732.3,57.14,702.78l14.47-29.52,14.46,29.52Zm-9.32-29.52,9.32,19,9.32-19-9.32-19Z"/><path class="cls-2" d="M95.4,732.3,80.93,702.78,95.4,673.26l14.46,29.52Zm-9.33-29.52,9.33,19,9.31-19-9.31-19Z"/><path class="cls-2" d="M119.18,732.3l-14.47-29.52,14.47-29.52,14.46,29.52Zm-9.32-29.52,9.32,19,9.32-19-9.32-19Z"/><path class="cls-2" d="M143,732.3,128.5,702.78,143,673.26l14.46,29.52Zm-9.33-29.52,9.33,19,9.31-19-9.31-19Z"/><path class="cls-2" d="M166.75,732.3l-14.47-29.52,14.47-29.52,14.47,29.52Zm-9.32-29.52,9.32,19,9.32-19-9.32-19Z"/><path class="cls-2" d="M190.54,732.3l-14.47-29.52,14.47-29.52L205,702.78Zm-9.32-29.52,9.32,19,9.32-19-9.32-19Z"/><path class="cls-2" d="M214.32,732.3l-14.46-29.52,14.46-29.52,14.47,29.52ZM205,702.78l9.32,19,9.32-19-9.32-19Z"/><path class="cls-2" d="M238.11,732.3l-14.47-29.52,14.47-29.52,14.46,29.52Zm-9.32-29.52,9.32,19,9.32-19-9.32-19Z"/><path class="cls-2" d="M261.89,732.3l-14.46-29.52,14.46-29.52,14.47,29.52Zm-9.32-29.52,9.32,19,9.32-19-9.32-19Z"/><path class="cls-2" d="M285.68,732.3l-14.47-29.52,14.47-29.52,14.46,29.52Zm-9.32-29.52,9.32,19,9.32-19-9.32-19Z"/><path class="cls-2" d="M309.46,732.3,295,702.78l14.46-29.52,14.47,29.52Zm-9.32-29.52,9.32,19,9.32-19-9.32-19Z"/><path class="cls-2" d="M333.25,732.3l-14.47-29.52,14.47-29.52,14.47,29.52Zm-9.32-29.52,9.32,19,9.32-19-9.32-19Z"/><path class="cls-2" d="M357,732.3l-14.46-29.52L357,673.26l14.47,29.52Zm-9.31-29.52,9.31,19,9.33-19-9.33-19Z"/><path class="cls-2" d="M380.82,732.3l-14.46-29.52,14.46-29.52,14.47,29.52Zm-9.32-29.52,9.32,19,9.32-19-9.32-19Z"/><path class="cls-2" d="M404.6,732.3l-14.46-29.52,14.46-29.52,14.47,29.52Zm-9.31-29.52,9.31,19,9.33-19-9.33-19Z"/><path class="cls-2" d="M428.39,732.3l-14.46-29.52,14.46-29.52,14.47,29.52Zm-9.32-29.52,9.32,19,9.32-19-9.32-19Z"/><path class="cls-2" d="M452.18,732.3l-14.47-29.52,14.47-29.52,14.46,29.52Zm-9.32-29.52,9.32,19,9.32-19-9.32-19Z"/><path class="cls-2" d="M476,732.3,461.5,702.78,476,673.26l14.47,29.52Zm-9.32-29.52,9.32,19,9.32-19-9.32-19Z"/></g></svg>